# xmcd
#
# Track frame offsets:
#	150
#	27142
#	48940
#	71337
#	96100
#	121062
#	139717
#	161367
#	181507
#	199200
#	224395
#
# Disc length: 3291 seconds
#
# Revision: 1
# Processed by: cddbd v1.5PL3 Copyright (c) Steve Scherf et al.
# Submitted via: CDex 1.50Beta5
#
DISCID=8a0cd90b
DTITLE=観月ありさ - FIORE
DYEAR=1997
DGENRE=Pop
TTITLE0=君が好きだから
TTITLE1=今年いちばん風の強い午後
TTITLE2=TOO SHY SHY BOY!
TTITLE3=SHAKE YOUR BODY FOR ME
TTITLE4=風の中で
TTITLE5=WILD・ERS
TTITLE6=春のとびら
TTITLE7=Cherry Cherry Strawberry
TTITLE8=エデンの都市
TTITLE9=GENERATION
TTITLE10=伝説の少女
EXTD=
EXTT0=
EXTT1=
EXTT2=
EXTT3=
EXTT4=
EXTT5=
EXTT6=
EXTT7=
EXTT8=
EXTT9=
EXTT10=
PLAYORDER=
